<svg xmlns="http://www.w3.org/2000/svg" width="106" height="20" fill="none" xmlns:v="https://vecta.io/nano"><g clip-path="url(#A)"><g fill="#000"><path d="M0 0v4.197h5.3V20h4.67V4.197h5.3V0H0zm27.212 13.773c0-1.241-.926-2.115-2.956-2.115H21.55v4.223h2.706c1.741.006 2.956-.696 2.956-2.108zm-5.662-5.8h2.227c1.412 0 2.535-.65 2.535-1.918 0-1.13-.821-1.918-2.706-1.918H21.55v3.836zm10.562 6.45c0 3.212-2.115 5.576-6.397 5.576h-8.788V0h7.547c4.46 0 6.595 1.8 6.595 4.874 0 1.721-.729 3.521-2.903 4.42v.059c2.713.736 3.948 2.594 3.948 5.071zM54.01 0l-3.376 12.282h-.059L47.534 0h-4.959l-3.1 12.282h-.059L36.039 0h-5.018l6.253 20h4.309l3.501-13.156h.026L48.46 20h4.315l6.253-20H54.01zm10.608 5.688h.059l2.194 6.732h-4.427l2.174-6.732zM62.391 0l-7.324 20H60l1.156-3.58h7.015L69.353 20h4.933L66.903 0h-4.512zm9.392 0l7.376 20h4.204L75.98 0h-4.197z"/></g><path d="M92.558 9.944L86.47.006h5.333l3.81 6.279h.085l3.81-6.279h5.281l-6.029 9.938 6.279 10.049h-5.419l-3.921-6.45h-.085l-3.947 6.45h-5.419l6.312-10.049z" fill="#ffc000"/></g><defs><clipPath id="A"><path fill="#fff" d="M0 0h105.038v20H0z"/></clipPath></defs></svg>