<svg width="20" height="20" viewBox="0 0 20 20" fill="none" xmlns="http://www.w3.org/2000/svg">
<path d="M6.31799 2.52859H2.52859V6.318H6.31799V2.52859Z" fill="black"/>
<path d="M8.0533 0H0.7967C0.3568 0 0 0.3568 0 0.7967V8.0533C0 8.4932 0.3568 8.85 0.7967 8.85H8.0533C8.4932 8.85 8.85 8.4932 8.85 8.0533V0.7967C8.85 0.3568 8.4932 0 8.0533 0ZM7.5234 7.5234H1.3266V1.3266H7.5199V7.5234H7.5234Z" fill="black"/>
<path d="M6.31799 13.6821H2.52859V17.4715H6.31799V13.6821Z" fill="black"/>
<path d="M8.0533 11.1499H0.7967C0.3568 11.1499 0 11.5067 0 11.9466V19.2033C0 19.6432 0.3568 19.9999 0.7967 19.9999H8.0533C8.4932 19.9999 8.85 19.6432 8.85 19.2033V11.9466C8.85 11.5067 8.4932 11.1499 8.0533 11.1499ZM7.5234 18.6733H1.3266V12.4765H7.5199V18.6733H7.5234Z" fill="black"/>
<path d="M17.471 2.52859H13.682V6.318H17.471V2.52859Z" fill="black"/>
<path d="M19.203 0H11.9466C11.5067 0 11.1499 0.3568 11.1499 0.7967V8.0533C11.1499 8.4932 11.5067 8.85 11.9466 8.85H19.203C19.643 8.85 20 8.4932 20 8.0533V0.7967C20 0.3568 19.643 0 19.203 0ZM18.673 7.5234H12.4765V1.3266H18.67V7.5234H18.673Z" fill="black"/>
<path d="M13.9487 11.1499H12.4765H11.6695C11.382 11.1499 11.1499 11.382 11.1499 11.6695V12.4765V13.9487C11.1499 14.2362 11.382 14.4682 11.6695 14.4682H11.957C12.2445 14.4682 12.4765 14.2362 12.4765 13.9487V12.4765H13.9487C14.2362 12.4765 14.4682 12.2445 14.4682 11.957V11.6695C14.4682 11.382 14.2362 11.1499 13.9487 11.1499Z" fill="black"/>
<path d="M19.48 11.1499H18.674H17.201C16.9138 11.1499 16.6818 11.382 16.6818 11.6695V11.957C16.6818 12.2445 16.9138 12.4765 17.201 12.4765H18.674V13.9487C18.674 14.2362 18.906 14.4682 19.193 14.4682H19.48C19.768 14.4682 20 14.2362 20 13.9487V12.4765V11.6695C20 11.382 19.768 11.1499 19.48 11.1499Z" fill="black"/>
<path d="M19.48 16.6816H19.193C18.906 16.6816 18.674 16.9137 18.674 17.2012V18.6733H17.201C16.9138 18.6733 16.6818 18.9054 16.6818 19.1929V19.4804C16.6818 19.7679 16.9138 20 17.201 20H18.674H19.48C19.768 20 20 19.7679 20 19.4804V18.6733V17.2012C20 16.9137 19.768 16.6816 19.48 16.6816Z" fill="black"/>
<path d="M13.9487 18.6733H12.4765V17.2012C12.4765 16.9137 12.2445 16.6816 11.957 16.6816H11.6695C11.382 16.6816 11.1499 16.9137 11.1499 17.2012V18.6733V19.4804C11.1499 19.7679 11.382 20 11.6695 20H12.4765H13.9487C14.2362 20 14.4682 19.7679 14.4682 19.4804V19.1929C14.4682 18.9054 14.2362 18.6733 13.9487 18.6733Z" fill="black"/>
<path d="M6.31799 2.52859H2.52859V6.318H6.31799V2.52859Z" fill="black"/>
<path d="M8.0533 0H0.7967C0.3568 0 0 0.3568 0 0.7967V8.0533C0 8.4932 0.3568 8.85 0.7967 8.85H8.0533C8.4932 8.85 8.85 8.4932 8.85 8.0533V0.7967C8.85 0.3568 8.4932 0 8.0533 0ZM7.5234 7.5234H1.3266V1.3266H7.5199V7.5234H7.5234Z" fill="black"/>
<path d="M6.31799 13.6821H2.52859V17.4715H6.31799V13.6821Z" fill="black"/>
<path d="M8.0533 11.1499H0.7967C0.3568 11.1499 0 11.5067 0 11.9466V19.2033C0 19.6432 0.3568 19.9999 0.7967 19.9999H8.0533C8.4932 19.9999 8.85 19.6432 8.85 19.2033V11.9466C8.85 11.5067 8.4932 11.1499 8.0533 11.1499ZM7.5234 18.6733H1.3266V12.4765H7.5199V18.6733H7.5234Z" fill="black"/>
<path d="M17.471 2.52859H13.682V6.318H17.471V2.52859Z" fill="black"/>
<path d="M19.203 0H11.9466C11.5067 0 11.1499 0.3568 11.1499 0.7967V8.0533C11.1499 8.4932 11.5067 8.85 11.9466 8.85H19.203C19.643 8.85 20 8.4932 20 8.0533V0.7967C20 0.3568 19.643 0 19.203 0ZM18.673 7.5234H12.4765V1.3266H18.67V7.5234H18.673Z" fill="black"/>
<path d="M13.9487 11.1499H12.4765H11.6695C11.382 11.1499 11.1499 11.382 11.1499 11.6695V12.4765V13.9487C11.1499 14.2362 11.382 14.4682 11.6695 14.4682H11.957C12.2445 14.4682 12.4765 14.2362 12.4765 13.9487V12.4765H13.9487C14.2362 12.4765 14.4682 12.2445 14.4682 11.957V11.6695C14.4682 11.382 14.2362 11.1499 13.9487 11.1499Z" fill="black"/>
<path d="M19.48 11.1499H18.674H17.201C16.9138 11.1499 16.6818 11.382 16.6818 11.6695V11.957C16.6818 12.2445 16.9138 12.4765 17.201 12.4765H18.674V13.9487C18.674 14.2362 18.906 14.4682 19.193 14.4682H19.48C19.768 14.4682 20 14.2362 20 13.9487V12.4765V11.6695C20 11.382 19.768 11.1499 19.48 11.1499Z" fill="black"/>
<path d="M19.48 16.6816H19.193C18.906 16.6816 18.674 16.9137 18.674 17.2012V18.6733H17.201C16.9138 18.6733 16.6818 18.9054 16.6818 19.1929V19.4804C16.6818 19.7679 16.9138 20 17.201 20H18.674H19.48C19.768 20 20 19.7679 20 19.4804V18.6733V17.2012C20 16.9137 19.768 16.6816 19.48 16.6816Z" fill="black"/>
<path d="M13.9487 18.6733H12.4765V17.2012C12.4765 16.9137 12.2445 16.6816 11.957 16.6816H11.6695C11.382 16.6816 11.1499 16.9137 11.1499 17.2012V18.6733V19.4804C11.1499 19.7679 11.382 20 11.6695 20H12.4765H13.9487C14.2362 20 14.4682 19.7679 14.4682 19.4804V19.1929C14.4682 18.9054 14.2362 18.6733 13.9487 18.6733Z" fill="black"/>
</svg>
