<svg width="23" height="20" viewBox="0 0 23 20" fill="none" xmlns="http://www.w3.org/2000/svg">
<path d="M19.7109 3.3103V4.8762C17.9619 1.9582 14.7686 0 11.126 0C6.15911 0 2.0259 3.641 1.25525 8.3941C1.13988 9.1094 1.69364 9.757 2.41661 9.757C2.99344 9.757 3.48567 9.3386 3.57797 8.7694C4.16864 5.1361 7.32816 2.3535 11.126 2.3535C14.1194 2.3535 16.7159 4.084 17.9711 6.5959H16.4252C15.7761 6.5959 15.2485 7.122 15.2485 7.7726C15.2485 8.4218 15.7746 8.9494 16.4252 8.9494H19.7109H21.003C21.589 8.9494 22.0644 8.4741 22.0644 7.888V6.5959V3.3103C22.0644 2.6611 21.5383 2.1335 20.8876 2.1335C20.2369 2.1335 19.7109 2.6596 19.7109 3.3103Z" fill="black"/>
<path d="M19.8339 10.2429C19.257 10.2429 18.7648 10.6613 18.6725 11.2305C18.0818 14.8637 14.9223 17.6464 11.1244 17.6464C8.13106 17.6464 5.53453 15.9159 4.27934 13.404H5.63759C6.28673 13.404 6.81434 12.8779 6.81434 12.2272C6.81434 11.5781 6.28826 11.0505 5.63759 11.0505H2.35348H1.06138C0.475312 11.0505 0 11.5258 0 12.1119V13.404V16.6896C0 17.3388 0.526073 17.8664 1.17674 17.8664C1.82587 17.8664 2.35348 17.3403 2.35348 16.6896V14.7945C4.05322 17.8941 7.3481 19.9999 11.126 19.9999C16.0929 19.9999 20.2261 16.3589 20.9968 11.6058C21.1121 10.8905 20.5584 10.2429 19.8339 10.2429Z" fill="black"/>
<path d="M19.7109 3.3103V4.8762C17.9619 1.9582 14.7686 0 11.126 0C6.15911 0 2.0259 3.641 1.25525 8.3941C1.13988 9.1094 1.69364 9.757 2.41661 9.757C2.99344 9.757 3.48567 9.3386 3.57797 8.7694C4.16864 5.1361 7.32816 2.3535 11.126 2.3535C14.1194 2.3535 16.7159 4.084 17.9711 6.5959H16.4252C15.7761 6.5959 15.2485 7.122 15.2485 7.7726C15.2485 8.4218 15.7746 8.9494 16.4252 8.9494H19.7109H21.003C21.589 8.9494 22.0644 8.4741 22.0644 7.888V6.5959V3.3103C22.0644 2.6611 21.5383 2.1335 20.8876 2.1335C20.2369 2.1335 19.7109 2.6596 19.7109 3.3103Z" fill="black"/>
<path d="M19.8339 10.2429C19.257 10.2429 18.7648 10.6613 18.6725 11.2305C18.0818 14.8637 14.9223 17.6464 11.1244 17.6464C8.13106 17.6464 5.53453 15.9159 4.27934 13.404H5.63759C6.28673 13.404 6.81434 12.8779 6.81434 12.2272C6.81434 11.5781 6.28826 11.0505 5.63759 11.0505H2.35348H1.06138C0.475312 11.0505 0 11.5258 0 12.1119V13.404V16.6896C0 17.3388 0.526073 17.8664 1.17674 17.8664C1.82587 17.8664 2.35348 17.3403 2.35348 16.6896V14.7945C4.05322 17.8941 7.3481 19.9999 11.126 19.9999C16.0929 19.9999 20.2261 16.3589 20.9968 11.6058C21.1121 10.8905 20.5584 10.2429 19.8339 10.2429Z" fill="black"/>
</svg>
