<svg width="20" height="20" viewBox="0 0 20 20" fill="none" xmlns="http://www.w3.org/2000/svg">
<path d="M12.685 2.6609C11.952 2.6609 11.356 2.0657 11.356 1.3321C11.356 0.598603 11.952 0.00340195 12.685 0.00340195H18.668C19.405 1.94785e-06 20 0.595104 20 1.3287C20 2.0623 19.405 2.6574 18.671 2.6574H12.685V2.6609Z" fill="black"/>
<path d="M1.32899 2.7129H2.657H8.64C9.374 2.7129 9.96899 3.3081 9.96899 4.0416C9.96899 4.7752 9.374 5.3703 8.64 5.3703H2.661V17.3392H14.63V11.3565C14.63 10.6229 15.225 10.0278 15.958 10.0278C16.692 10.0278 17.287 10.6229 17.287 11.3565V17.3392V18.6679C17.287 19.4015 16.692 19.9966 15.958 19.9966H1.32899C0.594995 20.0001 0 19.4049 0 18.6679V4.0416C0 3.3081 0.594995 2.7129 1.32899 2.7129Z" fill="black"/>
<path d="M17.339 1.3287C17.339 0.595201 17.934 0 18.668 0C19.405 0 20 0.595201 20 1.3287V7.3114C20 8.045 19.405 8.6401 18.671 8.6401C17.938 8.6401 17.343 8.045 17.343 7.3114V1.3287H17.339Z" fill="black"/>
<path d="M15.46 2.66099C15.979 2.14199 16.82 2.14199 17.339 2.66099C17.858 3.17999 17.858 4.0209 17.339 4.5399L10.522 11.3565C10.003 11.8756 9.163 11.8756 8.644 11.3565C8.125 10.8375 8.125 9.99669 8.644 9.47759L15.46 2.66099Z" fill="black"/>
<path d="M12.685 2.6609C11.952 2.6609 11.356 2.0657 11.356 1.3321C11.356 0.598603 11.952 0.00340195 12.685 0.00340195H18.668C19.405 1.94785e-06 20 0.595104 20 1.3287C20 2.0623 19.405 2.6574 18.671 2.6574H12.685V2.6609Z" fill="black"/>
<path d="M1.32899 2.7129H2.657H8.64C9.374 2.7129 9.96899 3.3081 9.96899 4.0416C9.96899 4.7752 9.374 5.3703 8.64 5.3703H2.661V17.3392H14.63V11.3565C14.63 10.6229 15.225 10.0278 15.958 10.0278C16.692 10.0278 17.287 10.6229 17.287 11.3565V17.3392V18.6679C17.287 19.4015 16.692 19.9966 15.958 19.9966H1.32899C0.594995 20.0001 0 19.4049 0 18.6679V4.0416C0 3.3081 0.594995 2.7129 1.32899 2.7129Z" fill="black"/>
<path d="M17.339 1.3287C17.339 0.595201 17.934 0 18.668 0C19.405 0 20 0.595201 20 1.3287V7.3114C20 8.045 19.405 8.6401 18.671 8.6401C17.938 8.6401 17.343 8.045 17.343 7.3114V1.3287H17.339Z" fill="black"/>
<path d="M15.46 2.66099C15.979 2.14199 16.82 2.14199 17.339 2.66099C17.858 3.17999 17.858 4.0209 17.339 4.5399L10.522 11.3565C10.003 11.8756 9.163 11.8756 8.644 11.3565C8.125 10.8375 8.125 9.99669 8.644 9.47759L15.46 2.66099Z" fill="black"/>
</svg>
