<svg width="64" height="50" viewBox="0 0 64 50" fill="none" xmlns="http://www.w3.org/2000/svg">
<g clip-path="url(#clip0_82_163)">
<path d="M0 4.07324H58.3529V45.6208H17.2101V24.847H0V4.07324Z" fill="white"/>
<path d="M0 24.8513V0H64V49.6941H17.216V31.2514C17.2482 31.3001 17.2756 31.3519 17.2978 31.406C18.0241 34.0846 18.747 36.7639 19.4667 39.4438C19.5264 39.6676 19.6176 39.7422 19.8497 39.7332C20.4324 39.7133 21.016 39.7267 21.5992 39.7267H21.8723C22.1912 38.4337 22.5052 37.1581 22.8187 35.8844C22.8426 35.7546 22.8756 35.6266 22.9173 35.5015C23.2264 34.745 23.0726 34.0165 22.8611 33.2635C22.278 31.1817 21.7367 29.086 21.1787 26.9972C21.0446 26.4954 21.1353 26.2657 21.5676 25.9971C21.668 25.9417 21.7617 25.8749 21.8471 25.7982C22.1429 25.4998 22.0271 25.0214 21.6253 24.9105C21.4665 24.8707 21.3033 24.852 21.1398 24.8548C14.2057 24.8521 7.27171 24.8521 0.337669 24.8548L0 24.8513ZM32.0343 18.4358C32.1728 18.9754 32.3113 19.4862 32.435 20.0004C32.6411 20.8568 32.5223 21.0129 31.914 21.3466C31.8997 21.3546 31.8864 21.365 31.8721 21.373C31.6936 21.4754 31.6256 21.6406 31.6468 21.834C31.668 22.0275 31.7774 22.1792 31.9751 22.2224C32.1653 22.2699 32.36 22.297 32.5558 22.3035C34.2397 22.3095 35.9234 22.3095 37.607 22.3035C37.7709 22.3042 37.9346 22.2884 38.0955 22.2562C38.2769 22.2185 38.4464 22.1369 38.4898 21.9285C38.5347 21.7027 38.4514 21.5217 38.2626 21.3929C38.2153 21.3598 38.1641 21.3328 38.1103 21.3123C37.6789 21.1557 37.4744 20.8259 37.3777 20.3913C37.1461 19.3469 36.9045 18.3025 36.6595 17.2581C35.9122 14.0753 35.1648 10.8924 34.4171 7.70952C34.3738 7.52302 34.2964 7.49617 34.1357 7.49716C32.9033 7.50164 31.671 7.51009 30.4386 7.49119C30.1675 7.48672 30.0526 7.56878 30.0191 7.82639C29.9836 8.10141 29.8456 8.39284 29.8998 8.64498C30.4238 11.064 30.9789 13.4765 31.5265 15.891C31.637 16.3799 31.7439 16.8692 31.8603 17.3939H31.5645C30.9237 17.3939 30.2828 17.3894 29.642 17.4004C29.5582 17.4004 29.4227 17.467 29.4024 17.5322C29.3122 17.8201 29.2546 18.119 29.1821 18.4338L32.0343 18.4358ZM12.2673 22.3065C13.1462 22.3065 14.0247 22.311 14.9036 22.3025C15.0747 22.2989 15.2442 22.2681 15.4059 22.2115C15.6105 22.1419 15.7159 21.9758 15.7209 21.7535C15.7258 21.5311 15.61 21.379 15.4108 21.2934C15.3122 21.2512 15.2102 21.2218 15.1106 21.1825C14.732 21.0333 14.6413 20.902 14.6339 20.4982C14.63 20.2913 14.6221 20.0844 14.6221 19.877C14.6221 16.4972 14.6221 13.1173 14.6221 9.73711C14.6221 9.55509 14.6256 9.37257 14.6349 9.19005C14.6453 8.9772 14.7335 8.80562 14.9307 8.71411C15.0786 8.64548 15.2348 8.59078 15.3867 8.52861C15.5838 8.44705 15.7159 8.31426 15.7189 8.08102C15.7219 7.84777 15.6203 7.67122 15.4034 7.59911C15.2258 7.53811 15.0399 7.50555 14.8523 7.50263C13.1359 7.49567 11.4195 7.49766 9.70355 7.49965C9.58079 7.50146 9.45833 7.51277 9.33728 7.53346C9.0006 7.58718 8.82266 7.75129 8.80294 8.01836C8.78273 8.29387 8.90695 8.45152 9.23525 8.56541C9.82284 8.77031 9.89382 8.86928 9.90614 9.49839C9.90614 9.55608 9.90614 9.61427 9.90614 9.67196C9.90614 13.1599 9.90614 16.6478 9.90614 20.1357C9.90614 20.9279 9.88001 21.0438 9.14208 21.275C9.13423 21.2769 9.1265 21.2792 9.11891 21.282C8.92174 21.3715 8.79998 21.5108 8.80146 21.739C8.80294 21.9673 8.91187 22.1424 9.12581 22.216C9.28014 22.2692 9.44187 22.2974 9.60496 22.2995C10.4942 22.309 11.381 22.305 12.2678 22.3045L12.2673 22.3065ZM51.7277 24.903C50.8158 24.903 49.9039 24.8985 48.9919 24.907C48.8377 24.913 48.6858 24.9467 48.5433 25.0064C48.3462 25.084 48.2333 25.272 48.2712 25.462C48.3023 25.6192 48.4349 25.7679 48.5532 25.8907C48.6193 25.9598 48.7469 25.9678 48.849 26.0046C49.2384 26.1478 49.3513 26.303 49.3675 26.7217C49.371 26.8043 49.371 26.8873 49.371 26.9704C49.371 30.4596 49.3587 33.9488 49.3818 37.4376C49.3863 38.0796 49.2768 38.5431 48.5729 38.6809C48.3689 38.7217 48.2683 38.9072 48.2634 39.1135C48.2584 39.3199 48.3491 39.492 48.5404 39.5736C48.6747 39.6324 48.8185 39.6661 48.9648 39.673C49.3996 39.6855 49.8353 39.6775 50.2706 39.6775C51.6508 39.6775 53.0311 39.6775 54.4113 39.6775C54.5336 39.6748 54.6551 39.6582 54.7736 39.6278C55.0255 39.5681 55.1798 39.397 55.1916 39.1404C55.2035 38.8838 55.0492 38.7187 54.8106 38.6565C54.3236 38.5287 54.0653 38.2651 54.0672 37.7116C54.0815 34.098 54.0727 30.4845 54.0761 26.8699C54.0761 26.2697 54.1609 26.1677 54.7169 25.9648C54.7951 25.9402 54.8708 25.9084 54.9432 25.8698C55.2651 25.6798 55.2883 25.2506 54.9728 25.0532C54.8194 24.9617 54.6452 24.9117 54.467 24.908C53.5516 24.8936 52.6397 24.901 51.7282 24.901L51.7277 24.903ZM47.2114 7.51506C47.1242 7.5076 47.0759 7.50014 47.0276 7.50014C45.4265 7.50014 43.8254 7.50014 42.2243 7.50014C42.1178 7.50314 42.0117 7.51563 41.9074 7.53744C41.5983 7.59364 41.4228 7.76572 41.4001 8.02681C41.3789 8.27249 41.5199 8.45152 41.8221 8.56193C42.4422 8.78871 42.4979 8.86828 42.4979 9.53619C42.4979 13.1066 42.4979 16.6771 42.4979 20.2476C42.4979 20.3386 42.4945 20.4301 42.4979 20.5211C42.5048 20.8419 42.3599 21.0562 42.0587 21.1626C41.9429 21.2039 41.8246 21.2397 41.7136 21.2899C41.5268 21.3735 41.407 21.5172 41.4031 21.7296C41.3992 21.9419 41.5017 22.123 41.6989 22.202C41.85 22.2639 42.011 22.2976 42.1741 22.3015C43.9559 22.3085 45.7377 22.3085 47.5195 22.3015C47.6908 22.2995 47.8604 22.2668 48.0203 22.205C48.1145 22.1705 48.1952 22.1065 48.2508 22.0224C48.3063 21.9383 48.3337 21.8385 48.3289 21.7375C48.326 21.5182 48.1973 21.3685 47.9986 21.285C47.8774 21.2352 47.7522 21.193 47.6299 21.1467C47.3923 21.0562 47.2533 20.8856 47.2356 20.6285C47.2218 20.4385 47.2144 20.2481 47.2144 20.0581C47.2144 15.982 47.2144 11.9061 47.2144 7.83037L47.2114 7.51506ZM39.5176 39.6755V24.901H39.3268C37.7005 24.901 36.0737 24.901 34.4467 24.901C34.364 24.8982 34.2813 24.9054 34.2002 24.9224C33.8019 25.0194 33.5915 25.378 33.7881 25.6754C33.8774 25.8111 34.0593 25.9066 34.219 25.9688C34.7311 26.1677 34.8174 26.2751 34.8174 26.8252C34.8174 30.38 34.8046 33.9369 34.8297 37.4898C34.8337 38.1154 34.7025 38.5342 34.044 38.6714C33.8305 38.7162 33.7231 38.8962 33.7211 39.119C33.7186 39.3637 33.8503 39.5313 34.0696 39.6079C34.2098 39.6527 34.3563 39.6743 34.5034 39.672C36.0808 39.676 37.6582 39.676 39.2356 39.672L39.5176 39.6755ZM48.2476 15.7343C48.8357 15.8229 49.1842 16.1566 49.3202 16.7096C49.3776 16.9425 49.4107 17.1809 49.4188 17.4208C49.4454 18.3159 49.4292 19.2111 49.4809 20.1023C49.5499 21.2959 50.3027 22.1747 51.4502 22.479C52.0572 22.6361 52.6924 22.6457 53.3037 22.5069C54.3315 22.2841 55.0566 21.644 55.5337 20.7165C55.6136 20.5609 55.6614 20.3301 55.6062 20.1779C55.5475 20.0183 55.3676 19.8591 55.204 19.7935C54.9575 19.694 54.7993 19.8964 54.6617 20.0805C54.5454 20.2366 54.4005 20.4246 54.2038 20.3062C54.0958 20.2411 54.0352 20.0198 54.0313 19.8666C54.0125 19.2126 54.0313 18.5576 54.0219 17.9027C54.012 16.9453 53.6029 16.2197 52.7669 15.7508C52.1403 15.3991 51.4492 15.2664 50.7547 15.144C50.6851 15.127 50.6167 15.105 50.5501 15.0784V15.0058C50.629 14.9764 50.7074 14.9441 50.7872 14.9182C51.0603 14.8312 51.3388 14.7591 51.607 14.6581C52.9926 14.134 54.1013 13.1781 54.0263 11.1624C53.9726 9.70826 53.3091 8.66537 52.0156 8.03278C51.2003 7.63492 50.3229 7.53545 49.4316 7.5265C49.0412 7.52153 48.6508 7.5265 48.2407 7.5265C48.2407 7.80898 48.2505 8.08201 48.2367 8.35355C48.2279 8.52662 48.2786 8.61813 48.4462 8.68527C49.0545 8.92896 49.4035 9.39047 49.4159 10.0514C49.4366 11.1528 49.4366 12.2547 49.4159 13.3571C49.4016 14.1031 49.0821 14.4592 48.356 14.6417C48.3193 14.6533 48.2835 14.6678 48.2491 14.685L48.2476 15.7343ZM19.7763 22.305C20.1706 22.305 20.565 22.309 20.9594 22.305C21.5509 22.298 22.1424 22.2886 22.7305 22.2717C22.9715 22.2647 23.1643 22.1662 23.2141 21.9007C23.2639 21.6351 23.1648 21.4143 22.8937 21.2949C22.5106 21.1248 22.2987 20.8314 22.1542 20.4495C21.1986 17.9065 20.2383 15.365 19.2735 12.825C19.1419 12.4769 18.8792 12.1118 18.9225 11.7866C18.9659 11.4613 19.311 11.1754 19.5244 10.872C19.5382 10.8516 19.551 10.8302 19.5658 10.8103C20.0657 10.1176 20.5882 9.44568 21.3715 9.0513C21.6495 8.91105 21.9433 8.80264 22.2252 8.67134C22.4224 8.57785 22.5935 8.44755 22.622 8.20386C22.6684 7.80849 22.4663 7.55485 22.0453 7.54291C21.1087 7.51656 20.1746 7.50711 19.239 7.50313C18.7638 7.50313 18.2881 7.52103 17.8129 7.54341C17.5595 7.55535 17.4072 7.70902 17.3629 7.95917C17.3215 8.19292 17.4269 8.363 17.6271 8.46993C17.7937 8.55845 17.9721 8.6236 18.1387 8.71262C18.6016 8.96128 18.8289 9.38251 18.6958 9.89078C18.607 10.241 18.4605 10.5737 18.2625 10.875C17.4358 12.0999 16.5815 13.3059 15.7347 14.5164C15.505 14.8446 15.4019 15.1957 15.5045 15.5941C15.5705 15.8492 15.6198 16.1098 15.7016 16.3595C16.134 17.6858 16.5756 19.0087 17.0114 20.3336C17.1889 20.8742 17.1558 20.9538 16.6718 21.2253C16.6289 21.2497 16.5855 21.275 16.5441 21.3009C16.3469 21.4337 16.2685 21.6182 16.3104 21.8569C16.3543 22.1056 16.5244 22.2214 16.7491 22.2617C16.9108 22.2901 17.0746 22.3045 17.2386 22.305C18.084 22.3075 18.9299 22.305 19.7763 22.305ZM26.396 24.901C25.7552 24.901 25.1321 24.9085 24.509 24.8965C24.3173 24.8926 24.2423 24.9527 24.195 25.1422C23.7977 26.7436 23.3856 28.3415 22.9893 29.9429C22.9585 30.0941 22.9646 30.2506 23.007 30.3989C23.4423 32.0505 23.8869 33.6997 24.3281 35.3498C24.6949 36.7204 25.0586 38.092 25.4318 39.4612C25.454 39.5427 25.5467 39.6646 25.6083 39.6661C26.3132 39.6805 27.0186 39.6755 27.7279 39.6755C27.7521 39.6089 27.7772 39.5562 27.7895 39.5015C28.1671 37.9971 28.5462 36.4926 28.9159 34.9868C28.948 34.8531 28.948 34.7136 28.9159 34.5799C28.5812 33.2685 28.2371 31.959 27.8955 30.6511C27.3972 28.7414 26.8998 26.8341 26.396 24.901ZM29.3536 10.4935L29.3019 10.4901C29.2427 10.6984 29.1821 10.9068 29.1254 11.1157C28.4001 13.7923 27.6747 16.4689 26.9491 19.1455C26.6775 20.1401 26.2378 21.0025 25.1651 21.3511C25.0587 21.3854 24.9522 21.5361 24.9162 21.655C24.8215 21.9693 25.0641 22.2359 25.4806 22.2627C25.9469 22.2926 26.4172 22.303 26.8825 22.302C27.4893 22.302 28.0966 22.2866 28.703 22.2662C28.9317 22.2587 29.1215 22.1613 29.1737 21.9101C29.226 21.659 29.1244 21.4769 28.878 21.3407C28.7266 21.2571 28.5644 21.195 28.4126 21.1129C28.0636 20.9249 27.8211 20.6509 27.8433 20.2301C27.8544 19.9009 27.8988 19.5736 27.9759 19.2534C28.5615 17.0597 29.1634 14.8705 29.7579 12.6798C29.7791 12.6012 29.8072 12.5122 29.7909 12.4371C29.6534 11.7881 29.503 11.1411 29.3551 10.4935H29.3536ZM40.5676 38.6351V39.6581H44.9685C44.9685 38.7629 44.9685 37.8857 44.9685 37.0084C44.9685 36.5359 44.9653 36.0636 44.9587 35.5915C44.9562 35.3642 44.8404 35.2105 44.6259 35.1558C44.3997 35.0977 44.1971 35.1524 44.0768 35.3737C43.9939 35.5258 43.9206 35.6831 43.8574 35.8446C43.6036 36.5011 43.2526 37.0914 42.7395 37.5778C42.1267 38.1567 41.4036 38.4984 40.569 38.6351H40.5676ZM29.4345 32.8701C29.4769 32.7448 29.504 32.6802 29.5208 32.613C29.9013 31.0837 30.2769 29.5535 30.6619 28.0252C30.8241 27.3817 30.9892 26.7282 31.527 26.2816C31.7646 26.0827 32.0476 25.9429 32.3157 25.7843C32.545 25.6485 32.6214 25.4938 32.5592 25.2506C32.5045 25.0363 32.3187 24.9055 32.0234 24.9025C31.071 24.897 30.1182 24.8985 29.1644 24.9025C29.084 24.9025 28.9869 24.905 28.9273 24.9483C28.8021 25.0388 28.6216 25.1472 28.6029 25.2666C28.5797 25.4157 28.664 25.6147 28.7631 25.747C28.8622 25.8793 29.0268 25.9369 29.1678 26.0215C29.7618 26.3776 29.9215 26.7252 29.7658 27.414C29.572 28.2679 29.3601 29.1178 29.1565 29.9692C29.0801 30.2895 28.907 30.6252 28.9519 30.9276C29.0465 31.5637 29.257 32.1823 29.4345 32.8701ZM40.5552 24.913C40.5552 25.1959 40.5661 25.453 40.5513 25.7087C40.5409 25.8922 40.6006 25.9608 40.7849 25.9986C41.5051 26.1448 42.1534 26.4462 42.6921 26.9649C43.2309 27.4836 43.5597 28.1192 43.7904 28.8199C43.9309 29.2466 44.0679 29.3411 44.4441 29.2859C44.7457 29.2417 44.8384 29.091 44.8384 28.6563V24.913H40.5552ZM42.9583 32.1127H42.9509C42.9509 31.5577 42.9509 31.0029 42.9509 30.4482C42.9509 30.1831 42.9633 29.9175 42.9509 29.6525C42.9386 29.3506 42.803 29.18 42.5728 29.1457C42.3308 29.1089 42.1262 29.2322 42.0178 29.4973C41.9665 29.6355 41.9229 29.7764 41.8872 29.9195C41.7339 30.4636 41.5367 31.037 41.0216 31.2797C40.5286 31.5105 40.5217 31.8392 40.5538 32.2559C40.5616 32.3554 40.5434 32.4549 40.5607 32.5543C40.571 32.6135 40.6134 32.6941 40.6622 32.7145C41.3765 33.0129 41.6974 33.6166 41.8946 34.3198C41.9436 34.5101 42.0149 34.6937 42.107 34.8669C42.2086 35.0469 42.3939 35.1156 42.597 35.0718C42.8001 35.028 42.9031 34.8883 42.9386 34.6928C42.9533 34.6031 42.9604 34.5122 42.9598 34.4213C42.9598 33.6514 42.9593 32.8812 42.9583 32.1107V32.1127Z" fill="black"/>
</g>
<defs>
<clipPath id="clip0_82_163">
<rect width="64" height="49.6941" fill="white"/>
</clipPath>
</defs>
</svg>
